<svg width="14" height="14" viewBox="0 0 14 14" fill="none" xmlns="http://www.w3.org/2000/svg">
<path d="M13.4426 6.15786H6.99079V8.70674H10.6765C10.5176 9.53062 10.0354 10.2275 9.30865 10.6944C8.69437 11.0891 7.91044 11.3226 6.98901 11.3226C5.20508 11.3226 3.69615 10.164 3.15686 8.60719C3.02115 8.21241 2.94258 7.79017 2.94258 7.35592C2.94258 6.92166 3.02115 6.49942 3.15686 6.10465C3.69794 4.54957 5.20687 3.39099 6.99079 3.39099C7.99615 3.39099 8.89794 3.72398 9.60865 4.37622L11.5729 2.48644C10.3854 1.42226 8.83722 0.77002 6.99079 0.77002C4.31401 0.77002 1.99794 2.24614 0.87115 4.39853C0.406864 5.28763 0.142578 6.29345 0.142578 7.35763C0.142578 8.42181 0.406864 9.42592 0.87115 10.315C1.99794 12.4674 4.31401 13.9435 6.99079 13.9435C8.84079 13.9435 10.3908 13.3531 11.5229 12.3473C12.8176 11.2007 13.5658 9.51174 13.5658 7.50525C13.5658 7.03838 13.5229 6.5904 13.4426 6.15786Z" fill="#BBBBBB"/>
</svg>
