<svg width="23" height="23" viewBox="0 0 23 23" fill="none" xmlns="http://www.w3.org/2000/svg">
<path d="M20.7314 6.36994C20.4304 5.67283 19.9963 5.04112 19.4534 4.51017C18.9102 3.97764 18.2696 3.55444 17.5667 3.26359C16.8378 2.9608 16.056 2.80582 15.2667 2.80763C14.1594 2.80763 13.079 3.11086 12.1401 3.68361C11.9155 3.82062 11.7021 3.97111 11.5 4.13507C11.2979 3.97111 11.0845 3.82062 10.8599 3.68361C9.921 3.11086 8.84063 2.80763 7.7333 2.80763C6.93594 2.80763 6.16328 2.96037 5.4333 3.26359C4.72803 3.55558 4.09238 3.9756 3.54658 4.51017C3.00302 5.04052 2.56881 5.67238 2.26855 6.36994C1.95635 7.09543 1.79688 7.86584 1.79688 8.65871C1.79688 9.40666 1.94961 10.1861 2.25283 10.9789C2.50664 11.6415 2.87051 12.3288 3.33545 13.0229C4.07217 14.1212 5.08516 15.2667 6.34297 16.4279C8.42734 18.3528 10.4915 19.6825 10.5791 19.7364L11.1114 20.0778C11.3473 20.2283 11.6505 20.2283 11.8863 20.0778L12.4187 19.7364C12.5063 19.6803 14.5682 18.3528 16.6548 16.4279C17.9126 15.2667 18.9256 14.1212 19.6623 13.0229C20.1272 12.3288 20.4934 11.6415 20.7449 10.9789C21.0481 10.1861 21.2009 9.40666 21.2009 8.65871C21.2031 7.86584 21.0437 7.09543 20.7314 6.36994ZM11.5 18.3012C11.5 18.3012 3.50391 13.1778 3.50391 8.65871C3.50391 6.36994 5.39736 4.51466 7.7333 4.51466C9.3752 4.51466 10.7992 5.43107 11.5 6.76974C12.2008 5.43107 13.6248 4.51466 15.2667 4.51466C17.6026 4.51466 19.4961 6.36994 19.4961 8.65871C19.4961 13.1778 11.5 18.3012 11.5 18.3012Z" fill="white"/>
</svg>
