<svg width="15" height="13" viewBox="0 0 15 13" fill="none" xmlns="http://www.w3.org/2000/svg">
<path d="M14.8589 1.82605C14.3125 2.05261 13.7178 2.21567 13.1053 2.27918C13.7413 1.91605 14.2175 1.34236 14.4446 0.665746C13.8479 1.00695 13.1942 1.24621 12.5125 1.37291C12.2276 1.08013 11.883 0.846897 11.5002 0.687729C11.1174 0.528562 10.7046 0.446875 10.2875 0.447761C8.59999 0.447761 7.24285 1.76254 7.24285 3.37597C7.24285 3.60254 7.27142 3.82911 7.31785 4.04709C4.79107 3.92008 2.5375 2.75978 1.03929 0.983284C0.766295 1.43147 0.623238 1.94178 0.624999 2.46112C0.624999 3.47724 1.1625 4.37321 1.98214 4.90015C1.49911 4.88187 1.0274 4.75425 0.605357 4.52769V4.56373C0.605357 5.98664 1.65178 7.16582 3.04643 7.43702C2.78457 7.5024 2.51519 7.53584 2.24464 7.53657C2.04643 7.53657 1.85893 7.51769 1.66964 7.49194C2.05536 8.65224 3.17857 9.49501 4.51607 9.52247C3.46964 10.3103 2.15893 10.7737 0.735714 10.7737C0.480357 10.7737 0.244643 10.7652 0 10.7377C1.35 11.5702 2.95178 12.0508 4.67678 12.0508C10.2768 12.0508 13.3411 7.5915 13.3411 3.72097C13.3411 3.59396 13.3411 3.46694 13.3321 3.33993C13.925 2.92284 14.4446 2.40619 14.8589 1.82605Z" fill="#BBBBBB"/>
</svg>
