<svg width="16" height="11" viewBox="0 0 16 11" fill="none" xmlns="http://www.w3.org/2000/svg">
<path d="M15.6661 1.70455C15.575 1.3785 15.3964 1.08116 15.1482 0.842289C14.9 0.603418 14.5909 0.431396 14.2518 0.343438C13.0036 0.020752 8 0.020752 8 0.020752C8 0.020752 2.99643 0.0207519 1.74821 0.341721C1.40897 0.429394 1.09969 0.601321 0.851439 0.840236C0.603191 1.07915 0.424713 1.37664 0.333929 1.70284C-6.81196e-08 2.90433 0 5.41029 0 5.41029C0 5.41029 -6.81196e-08 7.91626 0.333929 9.11603C0.517857 9.77857 1.06071 10.3004 1.74821 10.4771C2.99643 10.7998 8 10.7998 8 10.7998C8 10.7998 13.0036 10.7998 14.2518 10.4771C14.9411 10.3004 15.4821 9.77857 15.6661 9.11603C16 7.91626 16 5.41029 16 5.41029C16 5.41029 16 2.90433 15.6661 1.70455ZM6.41071 7.71029V3.1103L10.5536 5.39313L6.41071 7.71029Z" fill="#BBBBBB"/>
</svg>
